<svg width="40" height="28" viewBox="0 0 40 28" fill="none" xmlns="http://www.w3.org/2000/svg"><path d="M12.61 16.61a3 3 0 1 1 1.29-5.78 2.269 2.269 0 0 0-.65-.11 2.15 2.15 0 1 0 2.15 2.14 2 2 0 0 0-.17-.81 3 3 0 0 1-2.58 4.53l-.04.03zm17.75-3.78a2.115 2.115 0 0 0 0-.44 3 3 0 0 1 .23 1.16 3 3 0 1 1-1.9-2.82 2.006 2.006 0 0 0-.42 0 2.15 2.15 0 1 0 2.14 2.14l-.05-.04zm4.51-5.15l-1.89 1.57A6.811 6.811 0 0 1 23 18.52v-2.79A5 5 0 1 0 29.5 9h.07a13.2 13.2 0 0 0 1.64-1l7.94-6.53a17 17 0 0 0-6.7-.43 24.5 24.5 0 0 0-5.56 1.51A15.46 15.46 0 0 0 20 1.23a15.46 15.46 0 0 0-6.89 1.36 24.5 24.5 0 0 0-5.56-1.51 17 17 0 0 0-6.7.43L8.79 8c.524.349 1.072.66 1.64.93l.11.05A5 5 0 1 0 17 16v-4.88a1.5 1.5 0 1 1 3 0v11.61l-2.89-2.85-.57-.58c-.94.91-2.05 1.09-3.76 1.09A6.82 6.82 0 0 1 6 13.58a5.54 5.54 0 0 1 1.34-4.13L5.45 7.87a8.26 8.26 0 0 0-1.95 5.71 9.28 9.28 0 0 0 9.28 9.27c.818.016 1.636-.051 2.44-.2l4.94 4.43 5.06-4.56a9.26 9.26 0 0 0 9.57-14.84" fill="#002A4E"/></svg>